:SAMPLES-PER-SECOND 30
:FULLY-SPECIFIED
:DEGREES
563
root  -5.38468 28.6741 -10.5234 41.6264 69.9464 19.7119
RightUpLeg  -29.1426 -12.666 4.54096
RightLeg  78.6967 1.48466 5.18977
RightFoot  37.1463 -0.782109 2.84004
RightToes  -48.8083 -0.292388 -0.359286
Spine  5.17506 -1.33496 -10.591
Spine1  11.5255 -2.4666 -18.4426
HEad  -87.3631 -11.5411 -8.89241
LeftShoulder1  -1.94126e-019 -3.10601e-018 -2.51263e-017
LeftArm  -36.0958 -13.087 -48.9196
LeftForeArm  23.9753 -32.9103 -5.77058
LeftHand  -0.464702 0.929318 12.0878
RightShoulder  -4.96962e-017 0 -2.36833e-017
RightArm  -8.72479 -25.7402 84.2946
RightForeArm  49.845 35.5621 5.134
RightHand  -0.365405 3.4522 -5.04295
LeftUpLeg  -65.0821 -0.146534 -3.02328
LeftLeg  65.3178 0.66527 1.21618
LeftFoot  -7.42004 -0.0118954 -0.0219423
LeftToes  -23.3823 1.31378e-006 1.14341e-007
564
root  -4.4325 28.9454 -8.96574 37.642 69.9764 13.5569
RightUpLeg  -38.3526 -12.3993 5.80926
RightLeg  85.1958 1.11638 6.75283
RightFoot  25.9352 -0.47501 2.56867
RightToes  -50.481 -0.307144 -0.366362
Spine  6.21587 -1.74869 -10.317
Spine1  13.7111 -3.35676 -17.5495
HEad  -84.4377 -9.79675 -10.3058
LeftShoulder1  -1.94126e-019 -3.10601e-018 -2.51263e-017
LeftArm  -39.5361 -13.3175 -48.75
LeftForeArm  18.8615 -34.32 -6.41873
LeftHand  -0.410875 1.84819 13.3557
RightShoulder  -4.96962e-017 0 -2.36833e-017
RightArm  -12.2642 -21.5547 82.8945
RightForeArm  45.5686 36.1314 5.47739
RightHand  -0.306831 2.09629 -4.94246
LeftUpLeg  -63.817 1.49278 0.956065
LeftLeg  64.8654 0.706246 1.26798
LeftFoot  -9.25115 -0.0218222 -0.108209
LeftToes  -29.9609 1.31378e-006 1.14341e-007
565
root  -3.45795 29.2477 -7.3488 31.3441 70.1377 5.49104
RightUpLeg  -47.8382 -12.3555 7.8231
RightLeg  90.2894 0.505955 6.5682
RightFoot  17.2874 -0.159377 1.55785
RightToes  -46.6962 -0.274062 -0.34974
Spine  7.36883 -2.18766 -9.5484
Spine1  15.9215 -4.39816 -15.7691
HEad  -81.9802 -8.57032 -10.3722
LeftShoulder1  -1.94126e-019 -3.10601e-018 -2.51263e-017
LeftArm  -39.6753 -12.618 -48.4623
LeftForeArm  17.1663 -34.6664 -6.60515
LeftHand  -0.457465 1.63868 14.0784
RightShoulder  -4.96962e-017 0 -2.36833e-017
RightArm  -17.7885 -18.1598 82.0368
RightForeArm  37.7677 37.1569 6.14954
RightHand  -0.341578 -0.544472 -8.17207
LeftUpLeg  -61.4223 2.65008 6.03716
LeftLeg  63.7401 1.04092 1.79161
LeftFoot  -10.9423 -0.0464321 -0.32326
LeftToes  -35.3754 1.31378e-006 1.14341e-007
566
root  -2.3448 29.5913 -5.74123 27.2728 69.0561 -0.615692
RightUpLeg  -57.8672 -11.5482 8.91901
RightLeg  92.8024 0.161912 2.70319
RightFoot  9.88297 0.0336286 0.14491
RightToes  -41.2467 -0.228518 -0.322056
Spine  8.14211 -2.38916 -8.92282
Spine1  17.3181 -5.02184 -14.3652
HEad  -79.3344 -7.24011 -10.0839
LeftShoulder1  -1.94126e-019 -3.10601e-018 -2.51263e-017
LeftArm  -38.1844 -11.3184 -48.564
LeftForeArm  20.4789 -33.8766 -6.20662
LeftHand  -0.580342 0.188842 13.0119
RightShoulder  -4.96962e-017 0 -2.36833e-017
RightArm  -23.264 -16.1248 81.8455
RightForeArm  29.5215 38.6493 7.03363
RightHand  -0.336208 -2.15015 -11.8153
LeftUpLeg  -58.3481 2.92356 10.4564
LeftLeg  61.8379 2.41371 3.86539
LeftFoot  -12.1908 -0.119443 -0.956958
LeftToes  -38.6562 1.31378e-006 1.14341e-007
567
root  -1.04117 29.866 -4.10058 23.6863 67.0785 -5.71718
RightUpLeg  -66.7424 -10.005 9.51369
RightLeg  91.4142 -0.0553328 -4.33924
RightFoot  2.29075 0.0184334 -0.336607
RightToes  -31.7053 -0.155838 -0.263642
Spine  8.67046 -2.23946 -8.10034
Spine1  18.0828 -4.95077 -12.7571
HEad  -76.8422 -5.65464 -9.75793
LeftShoulder1  -1.94126e-019 -3.10601e-018 -2.51263e-017
LeftArm  -35.6055 -9.10976 -49.9682
LeftForeArm  25.2735 -32.1822 -5.51342
LeftHand  -0.674104 -1.31712 11.8194
RightShoulder  -4.96962e-017 0 -2.36833e-017
RightArm  -25.8263 -15.189 80.9442
RightForeArm  27.9409 40.5984 7.69294
RightHand  -0.333579 -2.89137 -15.1214
LeftUpLeg  -53.8544 2.08552 14.6895
LeftLeg  59.7837 4.96335 7.32452
LeftFoot  -13.2353 -0.26208 -2.09718
LeftToes  -41.3047 1.31378e-006 1.14341e-007
568
root  0.48191 30.0292 -2.3932 19.8634 64.0705 -10.2878
RightUpLeg  -72.9586 -7.63778 9.52522
RightLeg  85.1777 -1.4585 -10.3255
RightFoot  -0.569628 -0.00254053 0.0621834
RightToes  -24.9224 -0.110564 -0.215173
Spine  9.08112 -1.65116 -7.0647
Spine1  18.5243 -3.93988 -10.8904
HEad  -75.5121 -3.39143 -9.53231
LeftShoulder1  -1.94126e-019 -3.10601e-018 -2.51263e-017
LeftArm  -32.4601 -5.97395 -52.7031
LeftForeArm  26.6758 -29.9891 -4.92465
LeftHand  -0.67163 -1.98644 10.7564
RightShoulder  -4.96962e-017 0 -2.36833e-017
RightArm  -25.7722 -15.0053 79.0953
RightForeArm  32.6748 42.4783 7.95774
RightHand  -0.306737 -3.09736 -15.0894
LeftUpLeg  -47.4168 0.888661 18.3665
LeftLeg  57.6455 8.3318 11.2532
LeftFoot  -14.3192 -0.477054 -3.63489
LeftToes  -43.1099 1.31378e-006 1.14341e-007
